<?xml version="1.0" encoding="UTF-8"?>
<svg version="1.1" xmlns="http://www.w3.org/2000/svg" width="2000" height="2000">
<path d="M0 0 C660 0 1320 0 2000 0 C2000 660 2000 1320 2000 2000 C1340 2000 680 2000 0 2000 C0 1340 0 680 0 0 Z " fill="#FEFEFE" transform="translate(0,0)"/>
<path d="M0 0 C33.91980069 -0.06634264 67.83953755 -0.12165508 101.75938375 -0.15319599 C105.77904241 -0.15694736 109.79870093 -0.1608304 113.81835938 -0.16479492 C114.61848067 -0.16558185 115.41860197 -0.16636878 116.24296936 -0.16717956 C129.13772849 -0.18017451 142.03244681 -0.20379512 154.92718187 -0.23145839 C168.19366011 -0.25967827 181.46011723 -0.27621097 194.72662425 -0.28226548 C202.88916915 -0.28634787 211.05159865 -0.29916109 219.21410796 -0.3237494 C224.838686 -0.33981228 230.46320585 -0.34435489 236.08780506 -0.34050413 C239.31558664 -0.33861385 242.54313161 -0.34288941 245.77088547 -0.35761642 C268.18577754 -0.45473076 290.43843686 1.20701302 312.5 5.3125 C313.65322754 5.52414795 314.80645508 5.7357959 315.99462891 5.95385742 C326.25946122 7.91480419 336.11975044 10.62069107 346 14 C346.86222168 14.28713867 347.72444336 14.57427734 348.61279297 14.87011719 C376.36565545 24.16966357 402.29038666 37.4308134 425 56 C425.89203125 56.70125 426.7840625 57.4025 427.703125 58.125 C475.82719858 96.399117 507.92892833 150.15294064 522.41113281 209.60791016 C523.12821922 212.5208507 523.91207034 215.41463142 524.6875 218.3125 C527.6239514 230.29871684 529.14002425 242.57882351 530.625 254.8125 C530.74810547 255.82530029 530.87121094 256.83810059 530.99804688 257.8815918 C531.35444243 260.91907633 531.68358573 263.95810269 532 267 C532.09933838 267.90556641 532.19867676 268.81113281 532.30102539 269.74414062 C533.32239802 280.58766777 533.18606134 291.47990667 533.18530273 302.36132812 C533.18747321 305.83215912 533.20563397 309.30266314 533.22460938 312.7734375 C533.31419809 348.35614501 529.89956332 386.97205631 517.81494141 420.69677734 C516.80417606 423.55344609 515.84874702 426.42733807 514.88671875 429.30078125 C500.40545015 471.88751421 477.88205463 507.15239096 446.3125 538.9375 C445.82694641 539.42850189 445.34139282 539.91950378 444.84112549 540.42538452 C438.56782596 546.75104772 432.09735326 552.60506491 425 558 C424.29705811 558.54197021 423.59411621 559.08394043 422.86987305 559.64233398 C388.01348469 586.23702199 347.10516255 603.29463456 303.74619484 609.45176983 C300.99899403 609.85380401 298.2642234 610.28510215 295.52550316 610.7377367 C280.30557364 613.14788128 265.3663771 613.40806442 249.98291016 613.34057617 C247.24078121 613.33804492 244.49865981 613.34007761 241.75653076 613.34190369 C235.9008021 613.34346172 230.04517526 613.33420862 224.1894722 613.31719017 C215.72357169 613.29260198 207.25771941 613.28497488 198.79178707 613.2812262 C185.04980294 613.27469242 171.30787284 613.25481564 157.56591797 613.22631836 C144.23258735 613.19869755 130.8992715 613.17750347 117.56591797 613.16479492 C116.32901069 613.16361267 116.32901069 613.16361267 115.06711538 613.16240653 C110.92949762 613.15849085 106.79187976 613.15469986 102.65426183 613.15097082 C68.43612664 613.11997084 34.21809215 613.06472025 0 613 C0 592.87 0 572.74 0 552 C18.15 552 36.3 552 55 552 C55 390.3 55 228.6 55 62 C36.85 62 18.7 62 0 62 C0 41.54 0 21.08 0 0 Z " fill="#000000" transform="translate(1299,693)"/>
<path d="M0 0 C0.92392548 -0.00133942 1.84785095 -0.00267883 2.79977417 -0.00405884 C17.29071822 0.00048402 31.26013705 0.7764206 45.5625 3.25 C47.13636094 3.49450194 48.71057272 3.73675809 50.28515625 3.9765625 C59.24994363 5.38927856 67.91309425 7.49854168 76.5625 10.25 C77.42762207 10.51941406 78.29274414 10.78882813 79.18408203 11.06640625 C93.47026535 15.53885531 107.05683914 20.81010886 120.5625 27.25 C122.38374392 28.10755848 124.20536564 28.964315 126.02734375 29.8203125 C130.54786328 31.94577485 135.05408292 34.09825549 139.5625 36.25 C139.8925 26.02 140.2225 15.79 140.5625 5.25 C160.6925 5.25 180.8225 5.25 201.5625 5.25 C201.5625 71.58 201.5625 137.91 201.5625 206.25 C182.4225 206.25 163.2825 206.25 143.5625 206.25 C139.5625 183.25 139.5625 183.25 138.6875 176.125 C134.65615324 147.28001888 121.08041221 117.28828378 97.5234375 99.3125 C62.72418635 75.07238838 17.77590276 66.5491061 -23.9375 73.875 C-61.75283481 81.19463199 -91.1690866 104.81758713 -112.4375 136.25 C-128.27591914 160.51386603 -138.50727398 187.24503012 -145.4375 215.25 C-145.65647949 216.10432617 -145.87545898 216.95865234 -146.10107422 217.83886719 C-159.55810879 271.23915124 -160.15325438 332.96502464 -151.4375 387.25 C-151.09787517 389.54150639 -150.75929825 391.83316839 -150.421875 394.125 C-145.54843538 426.08491078 -135.92140566 456.77669307 -120.4375 485.25 C-119.93597412 486.1783667 -119.93597412 486.1783667 -119.42431641 487.12548828 C-113.57395896 497.79705069 -106.30859766 507.00287398 -98.4375 516.25 C-97.74269531 517.08789062 -97.04789063 517.92578125 -96.33203125 518.7890625 C-92.41495679 523.43218508 -88.14068347 527.41195062 -83.4375 531.25 C-82.50164062 532.0234375 -81.56578125 532.796875 -80.6015625 533.59375 C-56.43517218 553.13269586 -27.31966896 562.6955697 3.6875 562.5625 C4.3653656 562.56067719 5.0432312 562.55885437 5.74163818 562.55697632 C16.95198142 562.50643775 27.61691357 561.65905414 38.5625 559.25 C39.41489258 559.07307617 40.26728516 558.89615234 41.14550781 558.71386719 C71.15461175 552.44346979 100.18554094 539.17133329 117.8125 512.9375 C133.51481631 488.6314257 140.04405831 460.80680106 142.32080078 432.14941406 C142.5625 430.25 142.5625 430.25 143.5625 428.25 C162.7025 428.25 181.8425 428.25 201.5625 428.25 C201.5625 492.6 201.5625 556.95 201.5625 623.25 C181.7625 623.25 161.9625 623.25 141.5625 623.25 C139.5625 601.25 139.5625 601.25 139.5625 596.25 C137.06121193 597.41396574 134.56132571 598.58076552 132.0625 599.75 C131.287854 600.1116626 130.51320801 600.4733252 129.71508789 600.84594727 C126.01388436 602.58447696 122.33480034 604.34340577 118.71484375 606.24609375 C107.92077115 611.90853474 96.73550462 616.17923623 85.26513672 620.28076172 C83.01468891 621.08783288 80.77390032 621.91517865 78.53515625 622.75390625 C67.17178457 626.83142657 55.40825214 629.05476066 43.5625 631.25 C42.28270264 631.50209229 42.28270264 631.50209229 40.97705078 631.75927734 C13.09042121 637.14032064 -17.51730099 635.58350072 -45.4375 631.25 C-46.20803711 631.13253418 -46.97857422 631.01506836 -47.77246094 630.89404297 C-51.68091074 630.27734453 -55.55326552 629.543866 -59.41748047 628.69335938 C-60.85457137 628.37794276 -62.29399142 628.07305852 -63.73486328 627.77539062 C-108.50191061 618.48562767 -148.52082998 596.52097343 -182.4375 566.25 C-183.45683229 565.35394029 -184.47635902 564.4581017 -185.49609375 563.5625 C-190.17156304 559.40088826 -194.57007671 555.20135642 -198.58984375 550.40234375 C-199.95393091 548.81331198 -201.37158379 547.26990223 -202.81640625 545.75390625 C-216.08531063 531.82831664 -226.9591062 515.95019275 -236.4375 499.25 C-236.8922168 498.44900879 -237.34693359 497.64801758 -237.81542969 496.82275391 C-252.91985844 469.86414961 -263.34732224 440.50076751 -269.4375 410.25 C-269.6137793 409.38358887 -269.79005859 408.51717773 -269.97167969 407.62451172 C-272.28882372 396.06270204 -274.04350995 384.43268986 -275.625 372.75 C-275.79201416 371.52216797 -275.95902832 370.29433594 -276.13110352 369.02929688 C-278.3223875 352.29298482 -278.71305242 335.73434311 -278.75 318.875 C-278.75295074 317.68957611 -278.75590149 316.50415222 -278.75894165 315.2828064 C-278.76785075 299.45878313 -278.29826741 283.80211405 -276.625 268.0625 C-276.54222809 267.28134827 -276.45945618 266.50019653 -276.37417603 265.69537354 C-275.81163745 260.5349116 -275.15586707 255.39095836 -274.4375 250.25 C-274.33104156 249.48278625 -274.22458313 248.71557251 -274.11489868 247.92510986 C-272.4668478 236.27405857 -270.15821918 224.89888028 -267.25 213.5 C-267.05463654 212.72617981 -266.85927307 211.95235962 -266.6579895 211.15509033 C-261.6630125 191.44867885 -255.1923083 172.61353386 -246.4375 154.25 C-246.11813477 153.57420898 -245.79876953 152.89841797 -245.46972656 152.20214844 C-227.06611793 113.50786064 -199.1388681 77.6565394 -164.4375 52.25 C-163.34469886 51.42755246 -162.25225034 50.60463618 -161.16015625 49.78125 C-114.07866656 14.75755283 -58.03630663 0.05003186 0 0 Z " fill="#000000" transform="translate(446.4375,682.75)"/>
<path d="M0 0 C132.29092634 0 132.29092634 0 172.515625 39.45703125 C198.53326188 65.65316454 216.70320005 99.78314505 225.40380859 135.59277344 C226.0624053 138.25197226 226.77484656 140.89406777 227.48828125 143.5390625 C230.61471008 155.44223325 232.80394985 167.30133048 234.3125 179.5 C234.47177979 180.78600098 234.63105957 182.07200195 234.79516602 183.39697266 C236.92297351 201.7488727 237.27427305 220.04061389 237.3125 238.5 C237.31642761 240.32182297 237.31642761 240.32182297 237.32043457 242.18045044 C237.32495632 261.81502891 236.16868606 280.62869161 233 300 C232.6811026 302.19346228 232.36588471 304.38746326 232.0546875 306.58203125 C228.01998899 334.03594164 219.41748259 361.65771686 206 386 C205.68208496 386.59280762 205.36416992 387.18561523 205.03662109 387.79638672 C200.06308347 397.0646788 194.33509313 405.6172 188 414 C187.31550781 414.91136719 186.63101562 415.82273437 185.92578125 416.76171875 C165.02667703 443.3931487 137.9680143 461.97300521 105 470 C70.20775949 473.8658045 35.00634863 472 0 472 C0 316.24 0 160.48 0 0 Z " fill="#FEFEFE" transform="translate(1473,764)"/>
<path d="M0 0 C0.99 0.35191406 1.98 0.70382812 3 1.06640625 C21.88876192 8.36652725 36.59799753 21.40167348 45.3125 39.6875 C52.6102084 56.26261429 53.77093267 77.12386362 47.84765625 94.3515625 C40.62869411 112.70892329 26.34891016 128.3431125 8.4375 136.75 C-9.13214633 144.27277815 -28.929271 146.15211522 -47 139 C-64.4928192 131.64463158 -80.34075281 118.55168831 -88.37109375 101.00390625 C-96.43484326 81.07184885 -97.90109211 61.27499551 -89.4921875 41.2734375 C-81.05489595 23.26080112 -65.8683477 8.37514302 -47.33203125 0.84375 C-46.56246094 0.5653125 -45.79289063 0.286875 -45 0 C-44.17886719 -0.2990625 -43.35773437 -0.598125 -42.51171875 -0.90625 C-29.30477836 -4.94118511 -12.97696019 -4.69660332 0 0 Z " fill="#000000" transform="translate(1000,1174)"/>
</svg>
